#!OML:ASF I:\Random Stuff\random\construction\7_22_03\Session 2\subj1.ASF
:FULLY-SPECIFIED
:DEGREES
580
root 3.99289 17.6479 -12.6362 39.2565 -6.6577 -10.8281
lowerback 44.9087 -4.68275 -7.03674
upperback 14.0792 -9.47405 -10.2086
thorax -5.71949 -4.14911 -3.48987
lowerneck -16.7393 -4.98919 -12.4587
upperneck 26.8334 -4.78056 5.25897
head 12.0763 -2.72534 3.35222
rclavicle -3.18055e-015 1.59028e-015
rhumerus -17.5479 22.648 -62.3365
rradius 128.421
rwrist -8.01949
rhand -51.6171 30.5671
rfingers 7.12502
rthumb -24.1404 2.06603
lclavicle -3.18055e-015 1.59028e-015
lhumerus 41.4092 -53.8547 41.184
lradius 119.049
lwrist 52.6213
lhand -25.7756 -468.72
lfingers 7.12502
lthumb -179.238 -318.698
rfemur -62.5138 -6.387 40.5688
rtibia 33.4581
rfoot -10.6231 8.54576
rtoes -57.621
lfemur -58.6173 12.1909 5.07499
ltibia 39.9299
lfoot -14.7082 4.06989
ltoes -62.877
581
root 3.99251 17.649 -12.6303 39.2959 -6.71431 -10.8837
lowerback 44.8564 -4.65093 -7.06745
upperback 14.083 -9.44515 -10.203
thorax -5.69392 -4.1393 -3.48346
lowerneck -16.7557 -4.94695 -12.487
upperneck 26.9498 -4.72149 5.28484
head 12.1207 -2.7021 3.37839
rclavicle -1.27222e-014 5.96354e-015
rhumerus -17.5353 22.7076 -62.3179
rradius 128.413
rwrist -8.00172
rhand -51.6309 30.6217
rfingers 7.12502
rthumb -24.1537 2.12234
lclavicle -1.27222e-014 5.96354e-015
lhumerus 41.3602 -53.6337 41.2896
lradius 119.423
lwrist 51.6258
lhand -25.6412 -469.774
lfingers 7.12502
lthumb -179.108 -319.752
rfemur -62.5311 -6.32623 40.5758
rtibia 33.4893
rfoot -10.5613 8.65722
rtoes -57.3545
lfemur -58.6137 12.2865 5.07389
ltibia 39.9754
lfoot -14.7317 4.04599
ltoes -62.8735
582
root 3.99247 17.6445 -12.6235 39.3613 -6.81644 -10.9452
lowerback 44.7453 -4.59103 -7.10115
upperback 14.0866 -9.38279 -10.2124
thorax -5.65431 -4.11559 -3.50723
lowerneck -16.7194 -4.92599 -12.4808
upperneck 27.0029 -4.70614 5.30528
head 12.1327 -2.69427 3.38911
rclavicle 3.18055e-014 8.34896e-014
rhumerus -17.6295 22.6937 -62.3394
rradius 128.454
rwrist -8.03676
rhand -51.6157 30.5188
rfingers 7.12502
rthumb -24.1391 2.01755
lclavicle 3.18055e-014 8.34896e-014
lhumerus 41.3524 -53.4872 41.3163
lradius 119.688
lwrist 50.0688
lhand -25.8857 -471.854
lfingers 7.12502
lthumb -179.344 -321.833
rfemur -62.5603 -6.25338 40.6118
rtibia 33.5302
rfoot -10.6099 8.74857
rtoes -57.2895
lfemur -58.641 12.4939 5.00607
ltibia 40.0371
lfoot -14.777 3.94117
ltoes -62.8511
583
root 3.99348 17.6394 -12.6164 39.3967 -6.93486 -10.9565
lowerback 44.6794 -4.52695 -7.17549
upperback 14.0928 -9.33726 -10.2443
thorax -5.62226 -4.09785 -3.52697
lowerneck -16.6658 -4.91955 -12.3715
upperneck 26.9906 -4.72951 5.28173
head 12.1147 -2.697 3.35836
rclavicle 5.40694e-014 3.97569e-014
rhumerus -17.7236 22.6415 -62.3784
rradius 128.5
rwrist -8.11826
rhand -51.4464 30.6529
rfingers 7.12502
rthumb -23.9768 2.1302
lclavicle 5.40694e-014 3.97569e-014
lhumerus 41.6467 -53.6599 40.8618
lradius 119.884
lwrist 49.8195
lhand -25.732 -469.333
lfingers 7.12502
lthumb -179.195 -319.311
rfemur -62.5709 -6.21139 40.6087
rtibia 33.5809
rfoot -10.7373 8.73334
rtoes -57.5429
lfemur -58.6301 12.5562 4.97608
ltibia 40.1085
lfoot -14.8383 3.95746
ltoes -62.7612
584
root 3.99534 17.637 -12.609 39.4332 -7.0182 -10.9586
lowerback 44.6341 -4.52294 -7.2394
upperback 14.0987 -9.36063 -10.3013
thorax -5.60573 -4.10915 -3.54896
lowerneck -16.672 -4.87359 -12.2389
upperneck 26.9908 -4.68878 5.22728
head 12.1053 -2.67281 3.32164
rclavicle -4.45278e-014 2.70347e-014
rhumerus -17.7475 22.7112 -62.4655
rradius 128.513
rwrist -8.09978
rhand -51.3618 30.9666
rfingers 7.12502
rthumb -23.8956 2.43324
lclavicle -4.45278e-014 2.70347e-014
lhumerus 41.3692 -53.3813 41.0288
lradius 119.891
lwrist 48.6056
lhand -25.4215 -470.22
lfingers 7.12502
lthumb -178.895 -320.196
rfemur -62.5942 -6.15707 40.5653
rtibia 33.6323
rfoot -10.8113 8.67167
rtoes -57.7112
lfemur -58.6165 12.4953 5.01427
ltibia 40.1736
lfoot -14.8456 4.14078
ltoes -62.7268
585
root 3.99849 17.6349 -12.6018 39.4728 -7.00326 -10.9677
lowerback 44.628 -4.59416 -7.21568
upperback 14.0974 -9.43831 -10.3481
thorax -5.62258 -4.14178 -3.57744
lowerneck -16.7348 -4.80081 -12.1234
upperneck 27.0307 -4.59154 5.1463
head 12.1174 -2.62902 3.28676
rclavicle 1.24042e-013 1.35174e-014
rhumerus -17.7506 22.8649 -62.5523
rradius 128.535
rwrist -8.0559
rhand -51.4429 31.0059
rfingers 7.12502
rthumb -23.9734 2.48276
lclavicle 1.24042e-013 1.35174e-014
lhumerus 40.9988 -53.0539 41.2347
lradius 120.066
lwrist 47.3436
lhand -25.2159 -470.87
lfingers 7.12502
lthumb -178.697 -320.846
rfemur -62.6278 -6.08888 40.4987
rtibia 33.6776
rfoot -10.8352 8.56014
rtoes -57.7678
lfemur -58.6543 12.4406 5.05786
ltibia 40.2169
lfoot -14.8305 4.26246
ltoes -62.7404
586
root 4.00247 17.6336 -12.5948 39.5001 -6.92754 -10.9536
lowerback 44.6331 -4.57694 -7.06124
upperback 14.0791 -9.3446 -10.2154
thorax -5.63875 -4.10044 -3.54838
lowerneck -16.6566 -4.89327 -12.3886
upperneck 27.0739 -4.65455 5.16291
head 12.1363 -2.68187 3.3293
rclavicle -9.54166e-014 -5.24792e-014
rhumerus -17.9413 22.7696 -62.2683
rradius 128.6
rwrist -8.08519
rhand -51.5426 30.9399
rfingers 7.12502
rthumb -24.069 2.42932
lclavicle -9.54166e-014 -5.24792e-014
lhumerus 41.1187 -53.0023 41.4094
lradius 120.181
lwrist 45.6125
lhand -25.265 -471.21
lfingers 7.12502
lthumb -178.744 -321.186
rfemur -62.6696 -6.08193 40.4479
rtibia 33.7292
rfoot -10.8705 8.45154
rtoes -57.8184
lfemur -58.7155 12.3698 5.08787
ltibia 40.2465
lfoot -14.8582 4.26364
ltoes -62.6855
587
root 4.00513 17.6321 -12.5889 39.5216 -6.89649 -10.9435
lowerback 44.6376 -4.64852 -7.06157
upperback 14.0692 -9.43156 -10.2475
thorax -5.66133 -4.13752 -3.54526
lowerneck -16.7174 -4.80635 -12.2421
upperneck 27.1477 -4.53779 5.0487
head 12.1576 -2.63148 3.28021
rclavicle -8.90555e-014 -1.11319e-014
rhumerus -17.9375 22.99 -62.3037
rradius 128.583
rwrist -8.02182
rhand -51.6136 31.1097
rfingers 7.12502
rthumb -24.1371 2.6082
lclavicle -8.90555e-014 -1.11319e-014
lhumerus 40.82 -52.7513 41.4789
lradius 120.242
lwrist 43.4673
lhand -24.8348 -470.846
lfingers 7.12502
lthumb -178.329 -320.819
rfemur -62.7167 -6.0951 40.4318
rtibia 33.7976
rfoot -10.9216 8.40888
rtoes -57.8626
lfemur -58.7642 12.3522 5.07493
ltibia 40.2815
lfoot -14.8766 4.25663
ltoes -62.7022
588
root 4.0077 17.6282 -12.584 39.5247 -6.88219 -10.9278
lowerback 44.6385 -4.69303 -7.05314
upperback 14.0762 -9.47726 -10.2425
thorax -5.65597 -4.15842 -3.52562
lowerneck -16.7368 -4.76698 -12.2396
upperneck 27.1778 -4.45496 4.95796
head 12.1631 -2.60643 3.25849
rclavicle -2.8625e-014 3.97569e-016
rhumerus -17.944 23.1609 -62.2791
rradius 128.574
rwrist -7.93104
rhand -51.6414 31.2595
rfingers 7.12502
rthumb -24.1637 2.7615
lclavicle -2.8625e-014 3.97569e-016
lhumerus 40.6469 -52.6363 41.489
lradius 120.389
lwrist 42.1017
lhand -25.2618 -470.468
lfingers 7.12502
lthumb -178.741 -320.444
rfemur -62.7657 -6.12568 40.4243
rtibia 33.8814
rfoot -10.9735 8.38738
rtoes -57.9341
lfemur -58.8265 12.4133 4.98402
ltibia 40.3336
lfoot -14.8487 4.18195
ltoes -62.7881
589
root 4.01191 17.6238 -12.5785 39.5123 -6.84411 -10.9051
lowerback 44.6693 -4.69674 -6.99384
upperback 14.0525 -9.45577 -10.176
thorax -5.68602 -4.14816 -3.48998
lowerneck -16.5412 -4.78806 -12.3951
upperneck 27.1474 -4.45229 4.92456
head 12.1167 -2.62591 3.27367
rclavicle 8.26944e-014 3.10104e-014
rhumerus -18.0779 23.1925 -62.1682
rradius 128.637
rwrist -7.92887
rhand -51.6283 31.2951
rfingers 7.12502
rthumb -24.1511 2.79548
lclavicle 8.26944e-014 3.10104e-014
lhumerus 40.3631 -52.4425 41.9974
lradius 120.519
lwrist 40.4516
lhand -24.951 -470.459
lfingers 7.12502
lthumb -178.441 -320.433
rfemur -62.8077 -6.19265 40.425
rtibia 33.9705
rfoot -11.0213 8.38733
rtoes -57.9576
lfemur -58.8921 12.4651 4.89296
ltibia 40.399
lfoot -14.8406 4.04018
ltoes -62.8007
590
root 4.01371 17.6195 -12.5718 39.5269 -6.8584 -10.9347
lowerback 44.6513 -4.68707 -6.95995
upperback 14.0478 -9.42845 -10.1508
thorax -5.68579 -4.1369 -3.49112
lowerneck -16.4924 -4.79947 -12.4789
upperneck 27.2163 -4.43732 4.88236
head 12.1352 -2.63485 3.27568
rclavicle 1.08139e-013 6.59965e-014
rhumerus -18.1781 23.2415 -62.1104
rradius 128.726
rwrist -7.91911
rhand -51.6735 31.2711
rfingers 7.12502
rthumb -24.1945 2.77725
lclavicle 1.08139e-013 6.59965e-014
lhumerus 40.1571 -52.2499 42.3694
lradius 120.887
lwrist 39.1975
lhand -25.7729 -471.444
lfingers 7.12502
lthumb -179.235 -321.422
rfemur -62.83 -6.16935 40.4271
rtibia 34.0482
rfoot -11.0527 8.39217
rtoes -57.9631
lfemur -58.9217 12.5674 4.84713
ltibia 40.4664
lfoot -14.8612 3.97265
ltoes -62.9033
591
root 4.01318 17.6165 -12.5642 39.5584 -6.92443 -10.9635
lowerback 44.5807 -4.68929 -7.01367
upperback 14.0723 -9.44623 -10.1748
thorax -5.63612 -4.14872 -3.48781
lowerneck -16.6189 -4.77025 -12.4521
upperneck 27.3669 -4.35983 4.78244
head 12.21 -2.61283 3.2465
rclavicle -4.77083e-014 1.98785e-015
rhumerus -18.1443 23.4164 -62.1259
rradius 128.744
rwrist -7.85743
rhand -51.7766 31.3354
rfingers 7.12502
rthumb -24.2933 2.85469
lclavicle -4.77083e-014 1.98785e-015
lhumerus 39.8329 -51.9081 42.7529
lradius 121.26
lwrist 37.8359
lhand -25.3001 -470.714
lfingers 7.12502
lthumb -178.778 -320.691
rfemur -62.8319 -6.04903 40.3459
rtibia 34.1012
rfoot -11.0625 8.31312
rtoes -57.993
lfemur -58.9355 12.6912 4.78121
ltibia 40.5295
lfoot -14.8845 3.95507
ltoes -63.0456
592
root 4.01469 17.6169 -12.5558 39.5929 -6.96405 -10.963
lowerback 44.5141 -4.67357 -7.04943
upperback 14.068 -9.43273 -10.1411
thorax -5.60961 -4.14668 -3.44315
lowerneck -16.5686 -4.77579 -12.5781
upperneck 27.4348 -4.33787 4.78428
head 12.2294 -2.61804 3.27357
rclavicle 7.95139e-014 -3.53837e-014
rhumerus -18.1615 23.5335 -62.0595
rradius 128.71
rwrist -7.81951
rhand -51.8353 31.5326
rfingers 7.12502
rthumb -24.3496 3.05943
lclavicle 7.95139e-014 -3.53837e-014
lhumerus 39.628 -51.704 43.1077
lradius 121.654
lwrist 37.0891
lhand -25.8723 -470.651
lfingers 7.12502
lthumb -179.331 -320.63
rfemur -62.8316 -5.92651 40.2104
rtibia 34.1373
rfoot -11.0728 8.16149
rtoes -58.0051
lfemur -58.9609 12.7086 4.75033
ltibia 40.5906
lfoot -14.9478 3.95348
ltoes -63.0224
